# Made in Blockbench 4.6.5
mtllib item_package.mtl

o cube
v 0.3125 0.375 0.4375
v 0.3125 0.375 -0.4375
v 0.3125 0 0.4375
v 0.3125 0 -0.4375
v -0.3125 0.375 -0.4375
v -0.3125 0.375 0.4375
v -0.3125 0 -0.4375
v -0.3125 0 0.4375
vt 0 0.2727272727272727
vt 0.45454545454545453 0.2727272727272727
vt 0.45454545454545453 0
vt 0 0
vt 0.09090909090909091 0.5454545454545454
vt 0.7272727272727273 0.5454545454545454
vt 0.7272727272727273 0.2727272727272727
vt 0.09090909090909091 0.2727272727272727
vt 0 0.2727272727272727
vt 0.45454545454545453 0.2727272727272727
vt 0.45454545454545453 0
vt 0 0
vt 0.09090909090909091 0.5454545454545454
vt 0.7272727272727273 0.5454545454545454
vt 0.7272727272727273 0.2727272727272727
vt 0.09090909090909091 0.2727272727272727
vt 0 0.5454545454545454
vt 0 1
vt 0.6363636363636364 1
vt 0.6363636363636364 0.5454545454545454
vt 0 0.5454545454545454
vt 0 1
vt 0.6363636363636364 1
vt 0.6363636363636364 0.5454545454545454
vn 0 0 -1
vn 1 0 0
vn 0 0 1
vn -1 0 0
vn 0 1 0
vn 0 -1 0
usemtl m_5db85a07-d476-a852-e5dd-407939874bc4
f 4/4/1 7/3/1 5/2/1 2/1/1
f 3/8/2 4/7/2 2/6/2 1/5/2
f 8/12/3 3/11/3 1/10/3 6/9/3
f 7/16/4 8/15/4 6/14/4 5/13/4
f 6/20/5 1/19/5 2/18/5 5/17/5
f 7/24/6 4/23/6 3/22/6 8/21/6